<svg width="485" height="333" viewBox="0 0 485 333" fill="none" xmlns="http://www.w3.org/2000/svg">
<g clip-path="url(#clip0_25_1251)">
<path d="M470.717 316.529L465.966 318.558L455.897 301.152L462.909 298.156L470.717 316.529Z" fill="#FFB6B6"/>
<path d="M431.462 321.036L426.299 321.035L423.842 301.064H431.463L431.462 321.036Z" fill="#FFB6B6"/>
<path d="M431.644 326.437L415.765 326.437V326.235C415.765 324.592 416.417 323.016 417.576 321.854C418.735 320.691 420.307 320.039 421.946 320.038H421.946L424.847 317.832L430.258 320.039L431.644 320.039L431.644 326.437Z" fill="#03183F"/>
<path d="M473.605 319.986L458.998 326.228L458.919 326.043C458.276 324.531 458.259 322.825 458.871 321.3C459.483 319.775 460.674 318.557 462.181 317.912L462.182 317.912L463.987 314.742L469.828 314.644L471.103 314.1L473.605 319.986Z" fill="#03183F"/>
<path d="M426.397 202.84L418.55 250.755L420.685 257.895L417.883 262.952L421.998 307.362L420.328 311.05L424.995 313.936H434.493L434.997 273.731L437.343 267.828V264.575L442.119 240.059L442.998 268.102L444.388 274.015L443.221 278.224L444.745 281.173L457.813 309.309H468.463L467.639 302.946C469.547 301.977 464.774 299.146 464.316 297.051L465.884 293.513L464.316 286.83L462.878 273.772L464.394 246.207L463.681 209.088C460.105 204.281 456.138 200.573 451.222 199.535L426.397 202.84Z" fill="#03183F"/>
<path d="M445.508 139.74C451.452 139.74 456.27 134.908 456.27 128.948C456.27 122.988 451.452 118.156 445.508 118.156C439.564 118.156 434.745 122.988 434.745 128.948C434.745 134.908 439.564 139.74 445.508 139.74Z" fill="#FFB6B6"/>
<path d="M401.134 214.16C400.999 213.554 400.999 212.926 401.134 212.32C401.268 211.714 401.533 211.144 401.91 210.652C402.288 210.16 402.768 209.757 403.318 209.471C403.867 209.185 404.473 209.023 405.091 208.997L409.427 194.545L414.439 200.565L409.554 213.366C409.528 214.411 409.121 215.411 408.41 216.175C407.699 216.939 406.733 217.415 405.695 217.513C404.657 217.611 403.62 217.324 402.779 216.706C401.938 216.088 401.353 215.182 401.134 214.16Z" fill="#FFB6B6"/>
<path d="M429.258 154.757L427.315 151.197L424.811 152.035C424.811 152.035 422.047 153.824 418.177 160.575C416.387 163.698 412.517 183.722 412.517 183.722L403.473 207.737L412.693 209.3L420.387 189.509L429.307 170.57L429.258 154.757Z" fill="#9C0332"/>
<path d="M445.109 202.689C452.687 202.689 460.333 204.185 463.464 209.534C463.382 208.371 463.177 206.354 462.964 204.504L462.18 199.533L462.974 194.975L464.023 193.923L462.144 192.039L463.426 182.525L467.657 160.112C467.989 158.348 467.73 156.525 466.922 154.924C466.113 153.323 464.799 152.036 463.185 151.261L459.119 149.301L452.529 143.171L440.608 143.082L436.719 148.152L426.481 151.639L428.199 187.288L427.073 189.923C427.325 190.156 427.858 190.653 428.146 190.973C428.554 191.425 428.035 193.756 427.688 195.105L427.212 198.698L428.71 199.772L426.763 202.078L426.374 205.006C428.307 204.547 436.666 202.689 445.109 202.689Z" fill="#9C0332"/>
<path d="M448.261 139.212C448.307 139.11 448.353 139.008 448.399 138.906C448.381 138.907 448.364 138.909 448.346 138.91L448.261 139.212Z" fill="#03183F"/>
<path d="M456.57 118.647C456.059 118.164 455.394 117.876 454.693 117.834C453.997 117.856 453.291 118.486 453.436 119.17C452.157 116.9 450.123 115.154 447.689 114.239C445.255 113.324 442.577 113.298 440.126 114.165C438.396 114.777 436.7 116.001 436.302 117.797C436.264 118.268 436.123 118.726 435.891 119.137C435.69 119.358 435.429 119.514 435.141 119.587C434.852 119.661 434.548 119.648 434.267 119.55L434.25 119.545C434.154 119.512 434.05 119.509 433.951 119.536C433.853 119.563 433.765 119.618 433.699 119.696C433.633 119.773 433.592 119.869 433.58 119.971C433.569 120.072 433.588 120.174 433.635 120.265L434.125 121.18C433.508 121.318 432.867 121.304 432.256 121.14C432.155 121.114 432.048 121.119 431.95 121.156C431.851 121.193 431.767 121.259 431.708 121.346C431.649 121.433 431.618 121.536 431.619 121.641C431.621 121.746 431.655 121.848 431.717 121.933C432.53 123.049 433.592 123.959 434.818 124.591C436.044 125.223 437.4 125.559 438.778 125.573C440.734 125.561 442.709 124.885 444.613 125.336C445.349 125.51 446.037 125.848 446.626 126.324C447.215 126.799 447.691 127.401 448.018 128.086C448.344 128.77 448.514 129.519 448.515 130.277C448.516 131.036 448.347 131.785 448.021 132.47C448.606 131.828 449.736 131.98 450.334 132.609C450.61 132.945 450.813 133.335 450.932 133.754C451.051 134.172 451.084 134.611 451.027 135.043C450.867 136.365 450.476 137.648 449.871 138.833C452.183 138.762 454.418 137.981 456.273 136.595C458.129 135.209 459.516 133.286 460.246 131.085C460.977 128.884 461.016 126.511 460.358 124.286C459.701 122.062 458.378 120.094 456.57 118.647H456.57Z" fill="#03183F"/>
<path d="M108.736 78.3552C123.514 78.3552 135.494 66.3426 135.494 51.5243C135.494 36.706 123.514 24.6934 108.736 24.6934C93.9582 24.6934 81.9783 36.706 81.9783 51.5243C81.9783 66.3426 93.9582 78.3552 108.736 78.3552Z" fill="#9C0332"/>
<path d="M33.5303 131.337C20.1041 101.558 20.5992 63.8123 41.4362 38.6836C48.4074 73.5286 67.4455 104.778 95.1822 126.903C105.91 135.397 118.724 143.724 121.654 157.111C123.478 165.441 120.893 174.252 116.425 181.508C111.956 188.764 105.727 194.733 99.5686 200.616L98.8776 202.629C72.0815 184.026 46.9566 161.116 33.5303 131.337Z" fill="#3A6569"/>
<path d="M42.0161 39.0462C37.2207 65.3765 40.7832 93.4134 52.4389 117.537C54.9589 122.752 57.9678 127.823 61.9964 132.018C66.0268 136.214 70.8456 138.856 76.3891 140.479C81.457 141.963 86.8122 142.892 91.4322 145.585C96.3018 148.424 99.3239 153.187 100.501 158.649C101.942 165.332 100.901 172.136 99.6533 178.754C98.2677 186.102 96.7124 193.712 98.7202 201.099C98.9635 201.994 97.5644 202.32 97.3214 201.426C93.8281 188.575 100.62 175.9 99.6707 162.979C99.2277 156.95 96.97 151.018 91.8146 147.525C87.3064 144.47 81.7848 143.507 76.6405 142.05C71.239 140.519 66.388 138.181 62.2602 134.302C58.0376 130.335 54.8246 125.371 52.1827 120.243C46.2247 108.678 42.2971 95.9367 40.2191 83.1081C37.8296 68.3634 37.9731 53.3174 40.6434 38.6211C40.8091 37.7116 42.1807 38.1427 42.0161 39.0462H42.0161Z" fill="white"/>
<path d="M48.2378 109.897C43.8881 111.295 39.1845 111.097 34.967 109.338C30.7495 107.58 27.2927 104.375 25.214 100.297C24.7962 99.4701 26.0577 98.7803 26.476 99.6081C28.4047 103.409 31.625 106.394 35.5557 108.024C39.4864 109.653 43.8685 109.82 47.9111 108.494C48.79 108.207 49.1116 109.612 48.2378 109.897H48.2378Z" fill="white"/>
<path d="M73.7209 140.066C78.0673 131.779 79.1393 122.155 76.7232 113.111C76.4831 112.215 77.8821 111.889 78.122 112.784C80.6187 122.199 79.4828 132.213 74.9409 140.826C74.5074 141.647 73.2897 140.882 73.7208 140.066H73.7209Z" fill="white"/>
<path d="M39.6763 68.8317C41.4716 68.6425 43.192 68.0091 44.683 66.9884C46.1739 65.9678 47.3887 64.5917 48.2182 62.984C48.6411 62.1582 49.8584 62.9238 49.4383 63.7442C48.5136 65.5162 47.1701 67.0343 45.5254 68.1656C43.8806 69.297 41.9846 70.0072 40.0029 70.2343C39.8179 70.2714 39.6257 70.2365 39.4655 70.1367C39.3053 70.0368 39.1889 69.8795 39.1402 69.6968C39.0978 69.5108 39.1304 69.3157 39.2308 69.1537C39.3312 68.9917 39.4913 68.876 39.6763 68.8317V68.8317Z" fill="white"/>
<path d="M151.785 38.9746C151.536 39.4977 151.286 40.0209 151.043 40.5547C147.726 47.6054 144.985 54.9147 142.849 62.4104C142.674 62.9872 142.506 63.5745 142.349 64.1552C137.393 82.2691 135.834 101.148 137.752 119.832C138.521 127.267 139.854 134.631 141.738 141.863C144.341 151.85 147.955 162.471 147.14 172.443C147.066 173.484 146.929 174.52 146.727 175.544L101.381 203.317C101.246 203.329 101.117 203.35 100.982 203.362L99.2219 204.554C99.0987 204.188 98.9788 203.805 98.8557 203.439C98.7834 203.227 98.7212 203.009 98.6488 202.797C98.6038 202.653 98.5593 202.51 98.5105 202.383C98.4953 202.335 98.4807 202.287 98.4718 202.25C98.423 202.123 98.3911 202 98.3487 201.884C97.6727 199.748 97.0105 197.604 96.3621 195.451C96.3558 195.441 96.3558 195.441 96.3596 195.424C91.4609 179.009 87.8859 162.039 86.9932 145.065C86.9665 144.555 86.933 144.034 86.927 143.511C86.567 135.857 86.8313 128.187 87.7175 120.577C88.216 116.411 88.9246 112.274 89.8404 108.18C92.2271 97.6073 96.2574 87.4766 101.784 78.1596C112.803 59.5878 129.623 44.7564 150.208 39.3706C150.735 39.2332 151.252 39.1016 151.785 38.9746Z" fill="#3A6569"/>
<path d="M152.035 39.6144C132.396 57.7426 118.407 82.2792 113.229 108.577C112.109 114.263 111.467 120.128 112.165 125.909C112.863 131.693 115.125 136.712 118.576 141.354C121.732 145.598 125.45 149.573 127.522 154.513C129.705 159.719 129.258 165.347 126.919 170.419C124.056 176.624 119.14 181.429 114.17 185.959C108.652 190.99 102.84 196.127 100.008 203.237C99.6653 204.099 98.3523 203.514 98.6949 202.654C103.622 190.284 116.656 184.264 123.656 173.374C126.922 168.293 128.681 162.194 126.662 156.292C124.897 151.132 121.066 147.03 117.834 142.76C114.44 138.277 111.971 133.481 111.004 127.892C110.015 122.175 110.429 116.273 111.399 110.583C113.586 97.7525 118.1 85.2079 124.144 73.7105C131.089 60.495 140.238 48.5683 151.194 38.4463C151.872 37.8201 152.709 38.9923 152.035 39.6144L152.035 39.6144Z" fill="white"/>
<path d="M114.462 99.9399C110.15 98.43 106.513 95.4322 104.201 91.482C101.89 87.5317 101.054 82.8861 101.843 78.3749C102.006 77.4626 103.427 77.6734 103.264 78.5868C102.522 82.7863 103.301 87.1136 105.461 90.7877C107.621 94.4618 111.019 97.2407 115.043 98.6228C115.917 98.9241 115.331 100.24 114.462 99.9399H114.462Z" fill="white"/>
<path d="M116.694 139.413C125.139 135.421 131.774 128.383 135.275 119.704C135.621 118.844 136.934 119.428 136.589 120.287C132.929 129.312 126.009 136.622 117.211 140.757C116.373 141.15 115.859 139.805 116.694 139.413L116.694 139.413Z" fill="white"/>
<path d="M132.282 61.9843C133.83 62.9171 135.584 63.45 137.387 63.5352C139.19 63.6203 140.986 63.255 142.614 62.4721C143.447 62.0681 143.96 63.4143 143.132 63.8156C141.329 64.6723 139.345 65.0733 137.353 64.9836C135.36 64.894 133.42 64.3164 131.701 63.3014C131.531 63.2194 131.399 63.0755 131.331 62.899C131.263 62.7225 131.264 62.5267 131.335 62.3514C131.413 62.1774 131.556 62.0412 131.733 61.9725C131.911 61.9037 132.108 61.908 132.282 61.9843V61.9843Z" fill="white"/>
<path d="M259.137 98.7201C245.71 68.9412 246.205 31.1951 267.042 6.06641C274.014 40.9114 293.052 72.1608 320.788 94.2857C331.516 102.78 344.33 111.107 347.261 124.494C349.084 132.824 346.499 141.635 342.031 148.891C337.562 156.147 331.333 162.116 325.175 167.999L324.484 170.012C297.688 151.409 272.563 128.499 259.137 98.7201Z" fill="#3A6569"/>
<path d="M267.622 6.42904C262.827 32.7593 266.389 60.7962 278.045 84.9197C280.565 90.1351 283.574 95.2058 287.603 99.4005C291.633 103.597 296.452 106.239 301.995 107.862C307.063 109.345 312.418 110.275 317.038 112.968C321.908 115.806 324.93 120.57 326.107 126.032C327.548 132.715 326.507 139.519 325.259 146.137C323.874 153.485 322.319 161.095 324.326 168.482C324.57 169.377 323.171 169.703 322.928 168.809C319.434 155.958 326.226 143.283 325.277 130.362C324.834 124.333 322.576 118.401 317.421 114.908C312.913 111.853 307.391 110.89 302.247 109.432C296.845 107.902 291.994 105.563 287.866 101.685C283.644 97.7174 280.431 92.7539 277.789 87.626C271.831 76.0612 267.903 63.3195 265.825 50.4909C263.436 35.7462 263.579 20.7002 266.25 6.00395C266.415 5.09442 267.787 5.52547 267.622 6.42904H267.622Z" fill="white"/>
<path d="M273.844 77.2779C269.494 78.6757 264.791 78.4777 260.573 76.7191C256.356 74.9605 252.899 71.7559 250.82 67.6776C250.402 66.851 251.664 66.1612 252.082 66.9889C254.011 70.7902 257.231 73.775 261.162 75.4045C265.093 77.0341 269.475 77.201 273.517 75.8753C274.396 75.5882 274.718 76.9925 273.844 77.2779V77.2779Z" fill="white"/>
<path d="M299.327 107.449C303.673 99.1622 304.745 89.5376 302.329 80.4939C302.089 79.5981 303.488 79.2716 303.728 80.1663C306.225 89.5821 305.089 99.5957 300.547 108.209C300.113 109.029 298.896 108.265 299.327 107.449H299.327Z" fill="white"/>
<path d="M265.282 36.2145C267.078 36.0253 268.798 35.3919 270.289 34.3713C271.78 33.3506 272.995 31.9746 273.824 30.3668C274.247 29.541 275.464 30.3066 275.044 31.127C274.119 32.8991 272.776 34.4171 271.131 35.5484C269.487 36.6798 267.591 37.39 265.609 37.6171C265.424 37.6542 265.232 37.6193 265.071 37.5195C264.911 37.4196 264.795 37.2623 264.746 37.0796C264.704 36.8937 264.736 36.6985 264.837 36.5365C264.937 36.3745 265.097 36.2588 265.282 36.2145V36.2145Z" fill="white"/>
<path d="M377.391 6.35742C377.142 6.88056 376.892 7.40371 376.649 7.93754C373.331 14.9882 370.591 22.2975 368.454 29.7932C368.28 30.3701 368.112 30.9573 367.955 31.5381C362.999 49.6519 361.44 68.5309 363.358 87.2153C364.127 94.6495 365.46 102.014 367.344 109.246C369.947 119.233 373.561 129.853 372.746 139.826C372.672 140.867 372.534 141.903 372.333 142.927L326.986 170.7C326.852 170.711 326.723 170.733 326.588 170.745L324.828 171.937C324.705 171.571 324.585 171.188 324.462 170.822C324.389 170.61 324.327 170.392 324.255 170.18C324.21 170.036 324.165 169.892 324.116 169.766C324.101 169.718 324.087 169.67 324.078 169.633C324.029 169.506 323.997 169.383 323.955 169.266C323.279 167.131 322.616 164.987 321.968 162.834C321.962 162.823 321.962 162.823 321.966 162.807C317.067 146.392 313.492 129.422 312.599 112.448C312.572 111.938 312.539 111.417 312.533 110.893C312.173 103.24 312.437 95.5699 313.323 87.9598C313.822 83.7942 314.531 79.6567 315.446 75.563C317.833 64.9901 321.863 54.8594 327.39 45.5424C338.409 26.9706 355.229 12.1392 375.814 6.75342C376.341 6.61603 376.858 6.48444 377.391 6.35742Z" fill="#3A6569"/>
<path d="M377.641 6.99721C358.002 25.1254 344.013 49.662 338.835 75.96C337.715 81.6455 337.073 87.5108 337.771 93.292C338.469 99.0759 340.731 104.094 344.182 108.737C347.338 112.981 351.056 116.956 353.127 121.895C355.311 127.102 354.864 132.729 352.524 137.801C349.662 144.007 344.746 148.812 339.776 153.342C334.258 158.373 328.446 163.51 325.614 170.62C325.271 171.481 323.958 170.897 324.301 170.037C329.228 157.667 342.262 151.647 349.262 140.757C352.528 135.676 354.287 129.577 352.268 123.675C350.503 118.515 346.672 114.412 343.44 110.143C340.046 105.66 337.577 100.864 336.61 95.2752C335.621 89.5582 336.035 83.6554 337.005 77.9661C339.192 65.1354 343.706 52.5907 349.75 41.0933C356.695 27.8778 365.844 15.9511 376.8 5.82909C377.478 5.20288 378.315 6.37511 377.641 6.99723L377.641 6.99721Z" fill="white"/>
<path d="M340.068 67.3227C335.756 65.8128 332.119 62.815 329.808 58.8647C327.496 54.9145 326.66 50.2689 327.449 45.7577C327.612 44.8454 329.033 45.0562 328.87 45.9697C328.128 50.1691 328.907 54.4964 331.067 58.1705C333.227 61.8446 336.625 64.6235 340.649 66.0055C341.523 66.3069 340.937 67.6223 340.068 67.3227H340.068Z" fill="white"/>
<path d="M342.3 106.796C350.746 102.804 357.38 95.7663 360.881 87.0867C361.228 86.2265 362.541 86.8105 362.195 87.6697C358.535 96.695 351.615 104.005 342.818 108.14C341.979 108.533 341.466 107.187 342.3 106.796L342.3 106.796Z" fill="white"/>
<path d="M357.889 29.3652C359.436 30.298 361.19 30.8309 362.993 30.916C364.796 31.0012 366.592 30.6359 368.22 29.8529C369.054 29.4489 369.566 30.7951 368.738 31.1965C366.935 32.0531 364.951 32.4541 362.959 32.3645C360.966 32.2749 359.026 31.6973 357.307 30.6823C357.137 30.6002 357.005 30.4563 356.937 30.2799C356.869 30.1034 356.87 29.9076 356.941 29.7322C357.019 29.5582 357.162 29.4221 357.34 29.3533C357.517 29.2846 357.714 29.2888 357.889 29.3652Z" fill="white"/>
<path d="M88.012 319.57L92.9683 323.419L112.239 326.772L133.658 273.384C133.658 273.384 146.774 232.238 183.501 240.656L301.551 238.551C301.551 238.551 337.796 234.827 343.786 251.967C344.921 255.213 375.529 326.936 375.529 326.936L396.988 323.899L394.417 262.752L343.448 144.117L254.856 138.57L163.564 144.906L88.012 319.57Z" fill="#03183F"/>
<path d="M186.124 244.338C204.959 244.338 220.227 229.028 220.227 210.142C220.227 191.256 204.959 175.945 186.124 175.945C167.29 175.945 152.021 191.256 152.021 210.142C152.021 229.028 167.29 244.338 186.124 244.338Z" fill="#E6E6E6"/>
<path d="M300.501 244.338C319.336 244.338 334.604 229.028 334.604 210.142C334.604 191.256 319.336 175.945 300.501 175.945C281.666 175.945 266.398 191.256 266.398 210.142C266.398 229.028 281.666 244.338 300.501 244.338Z" fill="#E6E6E6"/>
<path d="M146.25 98.0824L160.292 95.3214C160.292 95.3214 266.014 80.1951 332.838 98.0824L327.784 112.287L150.972 111.235L146.25 98.0824Z" fill="#E6E6E6"/>
<path d="M288.795 171.473H199.073C188.179 171.473 178.764 163.909 176.686 153.487L166.867 104.242C166.649 103.168 166.658 102.06 166.892 100.988C167.126 99.9173 167.58 98.9069 168.226 98.0218C168.901 97.0931 169.759 96.3135 170.747 95.7314C171.735 95.1493 172.832 94.777 173.97 94.6378C221.291 88.748 268.149 88.738 313.243 94.6073C314.364 94.745 315.446 95.1128 316.42 95.6876C317.394 96.2625 318.239 97.0322 318.904 97.9488C319.545 98.8212 320 99.8166 320.242 100.873C320.483 101.929 320.504 103.024 320.305 104.09L311.241 153.183C309.285 163.781 299.845 171.473 288.795 171.473Z" fill="#9C0332"/>
<path d="M106.338 106.101L106.729 99.0538C106.79 97.9559 107.115 96.8892 107.677 95.9449C108.239 95.0007 109.021 94.207 109.955 93.6318C115.62 90.1469 130.902 82.4743 150.403 86.4963C151.772 86.7805 153.021 87.4807 153.98 88.5016C154.938 89.5225 155.56 90.8147 155.761 92.2025L156.283 95.8692L106.338 106.101Z" fill="#03183F"/>
<path d="M381.337 106.1L331.392 95.8684L332.231 89.9776C332.328 89.2819 332.63 88.6312 333.098 88.1091C333.567 87.587 334.18 87.2173 334.86 87.0476C357.35 81.3882 374.565 91.4385 379.305 94.6536C379.755 94.9599 380.129 95.3658 380.397 95.8399C380.666 96.314 380.822 96.8436 380.854 97.3879L381.337 106.1Z" fill="#03183F"/>
<path d="M90.4803 324.165C89.2767 324.178 88.0947 323.845 87.0743 323.205C73.7012 315.374 65.364 301.025 62.3131 280.567C59.793 263.668 60.8454 242.457 65.4408 217.523C73.5883 173.317 90.6645 129.13 97.6281 112.185C98.5506 109.948 99.9841 107.96 101.813 106.381C103.642 104.801 105.816 103.675 108.159 103.092C122.514 99.551 147.575 93.6113 154.12 93.6113C163.089 93.6113 167.942 102.077 167.99 102.163L168.017 102.233L175.893 136.482V136.976C180.239 151.719 177.01 162.368 173.534 168.707C169.761 175.587 164.879 179.021 164.831 179.055C157.165 184.907 144.676 203.759 132.246 228.247C119.329 253.695 109.754 278.805 106.633 295.418C102.812 315.751 97.212 321.976 93.1866 323.617C92.3287 323.975 91.4094 324.161 90.4803 324.165V324.165Z" fill="#E6E6E6"/>
<path d="M285.838 167.265H201.062C196.059 167.258 191.213 165.51 187.352 162.318C183.492 159.126 180.856 154.69 179.895 149.766L170.617 101.872C170.411 100.812 170.424 99.7209 170.655 98.6659C170.886 97.611 171.33 96.6147 171.96 95.7387C172.591 94.8626 173.393 94.1254 174.318 93.5726C175.244 93.0197 176.272 92.6629 177.34 92.5243C222.055 86.796 266.331 86.7863 308.94 92.4945C309.993 92.6382 311.006 92.9944 311.919 93.5415C312.831 94.0885 313.623 94.8152 314.248 95.6776C314.873 96.54 315.317 97.5203 315.553 98.5595C315.79 99.5986 315.814 100.675 315.625 101.724L307.06 149.471C306.168 154.463 303.554 158.981 299.674 162.234C295.793 165.488 290.896 167.269 285.838 167.265V167.265Z" fill="#E6E6E6"/>
<path d="M397.197 324.166C396.267 324.162 395.347 323.975 394.488 323.617C390.463 321.976 384.863 315.751 381.042 295.418C377.921 278.805 368.346 253.695 355.429 228.247C342.999 203.759 330.51 184.907 322.835 179.048C322.796 179.021 317.914 175.587 314.141 168.707C310.665 162.368 307.436 151.719 311.782 136.976L311.788 136.423L319.667 102.196L319.685 102.163C319.733 102.077 324.586 93.6113 333.555 93.6113C340.1 93.6113 365.161 99.551 379.516 103.092C381.859 103.675 384.033 104.801 385.862 106.381C387.691 107.96 389.124 109.948 390.047 112.185V112.185C397.011 129.13 414.087 173.317 422.234 217.523C426.83 242.457 427.882 263.668 425.362 280.567C422.311 301.025 413.974 315.374 400.582 323.216C399.567 323.85 398.392 324.18 397.197 324.166V324.166Z" fill="#E6E6E6"/>
<path d="M186.124 224.871C197.425 224.871 206.586 215.685 206.586 204.354C206.586 193.022 197.425 183.836 186.124 183.836C174.823 183.836 165.662 193.022 165.662 204.354C165.662 215.685 174.823 224.871 186.124 224.871Z" fill="#03183F"/>
<path d="M186.124 218.033C193.658 218.033 199.765 211.909 199.765 204.354C199.765 196.8 193.658 190.676 186.124 190.676C178.59 190.676 172.483 196.8 172.483 204.354C172.483 211.909 178.59 218.033 186.124 218.033Z" fill="#E6E6E6"/>
<path d="M300.501 224.871C311.802 224.871 320.963 215.685 320.963 204.354C320.963 193.022 311.802 183.836 300.501 183.836C289.2 183.836 280.039 193.022 280.039 204.354C280.039 215.685 289.2 224.871 300.501 224.871Z" fill="#03183F"/>
<path d="M300.501 218.033C308.035 218.033 314.143 211.909 314.143 204.354C314.143 196.8 308.035 190.676 300.501 190.676C292.968 190.676 286.86 196.8 286.86 204.354C286.86 211.909 292.968 218.033 300.501 218.033Z" fill="#E6E6E6"/>
<path d="M230.721 179.627C231.59 179.627 232.295 178.921 232.295 178.049C232.295 177.177 231.59 176.471 230.721 176.471C229.851 176.471 229.147 177.177 229.147 178.049C229.147 178.921 229.851 179.627 230.721 179.627Z" fill="#E6E6E6"/>
<path d="M237.542 179.627C238.411 179.627 239.116 178.921 239.116 178.049C239.116 177.177 238.411 176.471 237.542 176.471C236.672 176.471 235.968 177.177 235.968 178.049C235.968 178.921 236.672 179.627 237.542 179.627Z" fill="#E6E6E6"/>
<path d="M234.394 185.414C235.263 185.414 235.968 184.708 235.968 183.836C235.968 182.964 235.263 182.258 234.394 182.258C233.524 182.258 232.82 182.964 232.82 183.836C232.82 184.708 233.524 185.414 234.394 185.414Z" fill="#E6E6E6"/>
<path d="M240.689 185.414C241.559 185.414 242.263 184.708 242.263 183.836C242.263 182.964 241.559 182.258 240.689 182.258C239.82 182.258 239.115 182.964 239.115 183.836C239.115 184.708 239.82 185.414 240.689 185.414Z" fill="#E6E6E6"/>
<path d="M246.986 185.414C247.855 185.414 248.56 184.708 248.56 183.836C248.56 182.964 247.855 182.258 246.986 182.258C246.116 182.258 245.412 182.964 245.412 183.836C245.412 184.708 246.116 185.414 246.986 185.414Z" fill="#E6E6E6"/>
<path d="M253.282 185.414C254.151 185.414 254.855 184.708 254.855 183.836C254.855 182.964 254.151 182.258 253.282 182.258C252.412 182.258 251.708 182.964 251.708 183.836C251.708 184.708 252.412 185.414 253.282 185.414Z" fill="#E6E6E6"/>
<path d="M244.362 179.627C245.231 179.627 245.936 178.921 245.936 178.049C245.936 177.177 245.231 176.471 244.362 176.471C243.493 176.471 242.788 177.177 242.788 178.049C242.788 178.921 243.493 179.627 244.362 179.627Z" fill="#E6E6E6"/>
<path d="M251.183 179.627C252.052 179.627 252.757 178.921 252.757 178.049C252.757 177.177 252.052 176.471 251.183 176.471C250.314 176.471 249.609 177.177 249.609 178.049C249.609 178.921 250.314 179.627 251.183 179.627Z" fill="#E6E6E6"/>
<path d="M258.003 179.627C258.873 179.627 259.577 178.921 259.577 178.049C259.577 177.177 258.873 176.471 258.003 176.471C257.134 176.471 256.429 177.177 256.429 178.049C256.429 178.921 257.134 179.627 258.003 179.627Z" fill="#E6E6E6"/>
<path d="M250.658 226.713H237.017C236.391 226.713 235.79 226.464 235.347 226.02C234.905 225.576 234.656 224.974 234.656 224.346C234.656 223.718 234.905 223.116 235.347 222.672C235.79 222.228 236.391 221.979 237.017 221.979H250.658C251.284 221.979 251.885 222.228 252.328 222.672C252.77 223.116 253.019 223.718 253.019 224.346C253.019 224.974 252.77 225.576 252.328 226.02C251.885 226.464 251.284 226.713 250.658 226.713Z" fill="#E6E6E6"/>
<path d="M160.334 123.802C159.453 123.8 158.599 123.5 157.91 122.951C157.22 122.402 156.735 121.636 156.533 120.777L154.441 111.871C154.204 110.859 154.378 109.794 154.924 108.91C155.47 108.026 156.344 107.396 157.353 107.157C158.362 106.919 159.425 107.092 160.307 107.639C161.189 108.185 161.819 109.061 162.057 110.072L164.149 118.978C164.284 119.555 164.287 120.154 164.158 120.732C164.029 121.31 163.771 121.851 163.404 122.315C163.037 122.779 162.57 123.153 162.039 123.411C161.507 123.669 160.924 123.802 160.334 123.802V123.802Z" fill="#03183F"/>
<path d="M327.866 123.277C327.276 123.277 326.693 123.143 326.161 122.886C325.629 122.628 325.163 122.253 324.796 121.789C324.429 121.326 324.171 120.785 324.042 120.207C323.913 119.629 323.916 119.029 324.05 118.453L326.142 109.547C326.381 108.535 327.011 107.66 327.893 107.113C328.775 106.567 329.837 106.393 330.847 106.632C331.856 106.87 332.73 107.501 333.276 108.385C333.822 109.269 333.996 110.334 333.759 111.346L331.667 120.252C331.465 121.111 330.979 121.877 330.29 122.426C329.6 122.974 328.746 123.274 327.866 123.277V123.277Z" fill="#03183F"/>
<path d="M131.469 150.09C130.182 150.09 128.925 149.693 127.871 148.951L123.48 145.869C122.654 145.289 121.979 144.517 121.513 143.62C121.047 142.723 120.804 141.726 120.803 140.715V131.275C120.806 129.379 121.558 127.562 122.894 126.222C124.231 124.881 126.043 124.127 127.934 124.125H134.66C136.55 124.127 138.363 124.881 139.699 126.222C141.036 127.562 141.788 129.379 141.79 131.275V140.807C141.788 141.793 141.556 142.764 141.113 143.644C140.67 144.523 140.028 145.286 139.237 145.872L135.191 148.862C134.113 149.66 132.809 150.09 131.469 150.09V150.09Z" fill="#03183F"/>
<path d="M134.66 184.627H127.934C126.043 184.625 124.231 183.871 122.894 182.53C121.558 181.19 120.806 179.373 120.803 177.477V168.037C120.804 167.025 121.047 166.029 121.513 165.132C121.979 164.235 122.654 163.463 123.48 162.883L127.871 159.8C128.947 159.045 130.232 158.647 131.545 158.663C132.859 158.679 134.134 159.108 135.191 159.89L139.237 162.88C140.028 163.466 140.67 164.229 141.113 165.108C141.556 165.988 141.788 166.959 141.79 167.944V177.477C141.788 179.373 141.036 181.19 139.699 182.53C138.363 183.871 136.55 184.625 134.66 184.627V184.627Z" fill="#03183F"/>
<path d="M155.646 164.897H146.232C145.223 164.897 144.229 164.653 143.335 164.186C142.44 163.719 141.671 163.042 141.092 162.214L138.018 157.81C137.264 156.732 136.867 155.443 136.883 154.126C136.899 152.809 137.327 151.53 138.107 150.471L141.089 146.413C141.673 145.621 142.434 144.977 143.311 144.532C144.188 144.088 145.157 143.855 146.14 143.854H155.646C157.537 143.856 159.349 144.61 160.686 145.95C162.023 147.29 162.775 149.108 162.777 151.003V157.748C162.775 159.643 162.023 161.46 160.686 162.801C159.349 164.141 157.537 164.895 155.646 164.897V164.897Z" fill="#03183F"/>
<path d="M115.837 164.897H106.423C104.532 164.895 102.72 164.141 101.383 162.801C100.046 161.46 99.2944 159.643 99.2922 157.748V151.003C99.2944 149.108 100.046 147.29 101.383 145.95C102.72 144.61 104.532 143.856 106.423 143.854H115.929C116.912 143.855 117.881 144.088 118.758 144.532C119.635 144.977 120.396 145.621 120.98 146.413L123.962 150.471C124.742 151.53 125.17 152.809 125.186 154.126C125.202 155.443 124.805 156.732 124.051 157.81L120.977 162.214C120.398 163.042 119.629 163.719 118.734 164.186C117.839 164.653 116.846 164.897 115.837 164.897V164.897Z" fill="#03183F"/>
<path d="M356.641 139.644C363.305 139.644 368.708 134.226 368.708 127.544C368.708 120.861 363.305 115.443 356.641 115.443C349.976 115.443 344.573 120.861 344.573 127.544C344.573 134.226 349.976 139.644 356.641 139.644Z" fill="#03183F"/>
<path d="M383.398 167.529C390.063 167.529 395.466 162.111 395.466 155.428C395.466 148.746 390.063 143.328 383.398 143.328C376.734 143.328 371.331 148.746 371.331 155.428C371.331 162.111 376.734 167.529 383.398 167.529Z" fill="#03183F"/>
<path d="M356.641 193.833C363.305 193.833 368.708 188.416 368.708 181.733C368.708 175.05 363.305 169.633 356.641 169.633C349.976 169.633 344.573 175.05 344.573 181.733C344.573 188.416 349.976 193.833 356.641 193.833Z" fill="#03183F"/>
<path d="M329.882 167.001C336.547 167.001 341.95 161.584 341.95 154.901C341.95 148.218 336.547 142.801 329.882 142.801C323.218 142.801 317.815 148.218 317.815 154.901C317.815 161.584 323.218 167.001 329.882 167.001Z" fill="#03183F"/>
<path d="M383.399 163.318C381.842 163.318 380.32 162.855 379.026 161.988C377.732 161.121 376.723 159.888 376.128 158.447C375.532 157.005 375.376 155.418 375.68 153.887C375.983 152.356 376.733 150.95 377.834 149.847C378.934 148.743 380.337 147.991 381.863 147.687C383.39 147.382 384.972 147.539 386.41 148.136C387.848 148.733 389.077 149.745 389.942 151.042C390.807 152.34 391.268 153.866 391.268 155.427C391.266 157.519 390.436 159.525 388.961 161.004C387.485 162.483 385.485 163.316 383.399 163.318V163.318ZM383.399 148.587C382.05 148.587 380.731 148.988 379.609 149.74C378.488 150.491 377.613 151.56 377.097 152.809C376.581 154.059 376.446 155.434 376.709 156.761C376.972 158.088 377.622 159.306 378.576 160.263C379.529 161.219 380.745 161.871 382.068 162.134C383.391 162.398 384.762 162.263 386.009 161.745C387.255 161.228 388.32 160.351 389.07 159.226C389.819 158.102 390.219 156.779 390.219 155.427C390.217 153.613 389.498 151.875 388.219 150.593C386.941 149.311 385.207 148.589 383.399 148.587V148.587Z" fill="#E6E6E6"/>
<path d="M365.073 133.415L349.257 133.191L357.359 119.568L365.073 133.415ZM351.09 132.164L363.271 132.337L357.329 121.673L351.09 132.164Z" fill="#E6E6E6"/>
<path d="M336.179 161.214H323.587V148.588H336.179V161.214ZM324.636 160.162H335.129V149.64H324.636V160.162Z" fill="#E6E6E6"/>
<path d="M363.152 187.165L357.384 181.391L362.471 176.3L361.729 175.555L356.641 180.647L351.552 175.555L350.811 176.3L355.898 181.391L350.129 187.165L350.871 187.91L356.641 182.135L362.411 187.91L363.152 187.165Z" fill="#E6E6E6"/>
<path d="M131.452 44.3473C129.895 44.3473 128.374 43.8845 127.079 43.0174C125.785 42.1503 124.777 40.9178 124.181 39.4758C123.585 38.0339 123.429 36.4472 123.733 34.9164C124.037 33.3856 124.786 31.9794 125.887 30.8758C126.987 29.7722 128.39 29.0206 129.916 28.7161C131.443 28.4116 133.025 28.5679 134.463 29.1652C135.902 29.7624 137.131 30.7739 137.995 32.0716C138.86 33.3694 139.322 34.8951 139.322 36.4559C139.319 38.5481 138.489 40.554 137.014 42.0334C135.539 43.5128 133.538 44.345 131.452 44.3473V44.3473ZM131.452 29.6166C130.103 29.6166 128.784 30.0178 127.662 30.7693C126.541 31.5208 125.667 32.5889 125.15 33.8386C124.634 35.0883 124.499 36.4635 124.762 37.7902C125.025 39.1169 125.675 40.3355 126.629 41.292C127.583 42.2485 128.798 42.8999 130.121 43.1637C131.444 43.4276 132.816 43.2922 134.062 42.7746C135.308 42.2569 136.373 41.3803 137.123 40.2556C137.872 39.1309 138.272 37.8086 138.272 36.4559C138.27 34.6426 137.551 32.9042 136.272 31.622C134.994 30.3399 133.26 29.6187 131.452 29.6166V29.6166Z" fill="#E6E6E6"/>
<path d="M113.651 31.2781L97.8352 31.0539L105.937 17.4316L113.651 31.2781ZM99.6674 30.0274L111.848 30.2003L105.907 19.536L99.6674 30.0274Z" fill="#E6E6E6"/>
<path d="M90.373 50.472H77.781V37.8457H90.373V50.472ZM78.8303 49.4198H89.3236V38.8979H78.8303V49.4198Z" fill="#E6E6E6"/>
<path d="M101.761 73.9785L95.9926 68.2051L101.08 63.1141L100.338 62.3691L95.2497 67.4618L90.1609 62.3691L89.4196 63.1141L94.5067 68.2051L88.738 73.9785L89.4794 74.7235L95.2497 68.9485L101.02 74.7235L101.761 73.9785Z" fill="#E6E6E6"/>
<path opacity="0.2" d="M457.114 186.73L436.749 202.099L459.737 191.991L457.114 186.73Z" fill="black"/>
<path d="M80.4044 205.67L54.6958 206.722L51.5479 189.361L73.5838 182.521L80.4044 205.67Z" fill="#A0616A"/>
<path d="M70.9524 163.121L65.2183 157.266L72.2491 146.486L84.2828 126.401C83.8896 125.535 83.7677 124.571 83.9331 123.634C84.0985 122.698 84.5435 121.834 85.2092 121.157C85.875 120.48 86.73 120.021 87.6613 119.842C88.5926 119.663 89.5562 119.771 90.4247 120.153C91.2932 120.535 92.0256 121.172 92.5251 121.98C93.0246 122.789 93.2676 123.73 93.2219 124.68C93.1763 125.629 92.8442 126.543 92.2695 127.299C91.6949 128.056 90.9048 128.619 90.0037 128.916L80.0709 150.359L70.9524 163.121Z" fill="#A0616A"/>
<path d="M64.6003 176.487C63.927 177.533 62.9677 178.362 61.8371 178.875C60.7065 179.388 59.4523 179.564 58.2246 179.382C57.056 179.244 55.9531 178.766 55.0513 178.008C54.1496 177.25 53.4882 176.245 53.1484 175.115C52.898 174.313 52.8252 173.467 52.9348 172.634C53.0444 171.801 53.3339 171.002 53.783 170.293C57.619 163.808 64.6938 155.245 64.7648 155.16L64.8774 155.023L76.81 157.616L64.6003 176.487Z" fill="#9C0332"/>
<path d="M74.2767 319.986L81.4064 319.986L84.7978 292.41L74.2751 292.411L74.2767 319.986Z" fill="#A0616A"/>
<path d="M72.458 317.651L86.499 317.65H86.4996C88.8727 317.651 91.1486 318.596 92.8266 320.278C94.5047 321.961 95.4475 324.243 95.4477 326.623V326.914L72.4584 326.915L72.458 317.651Z" fill="#03183F"/>
<path d="M18.762 316.891L25.8114 317.959L33.2763 291.202L24.0349 289.625L18.762 316.891Z" fill="#A0616A"/>
<path d="M17.3116 314.311L31.195 316.415L31.1955 316.415C33.5419 316.771 35.6513 318.046 37.0597 319.962C38.468 321.877 39.06 324.275 38.7054 326.628L38.6619 326.916L15.9309 323.471L17.3116 314.311Z" fill="#03183F"/>
<path d="M53.6463 201.461L78.3056 197.252L85.9355 213.022L86.2263 315.946L72.6925 315.861L67.035 232.557L30.9788 309.532L16.4399 307.782L48.1346 225.268C48.1346 225.268 46.3899 210.69 51.9147 203.4L53.6463 201.461Z" fill="#03183F"/>
<path d="M44.4919 170.391C44.115 169.256 44.075 168.035 44.3767 166.878C44.6784 165.72 45.3087 164.675 46.1913 163.87L49.6958 160.676L59.5758 159.007L65.7534 157.881L75.6824 186.731L51.5672 197.841C49.4508 197.383 48.6054 196.222 49.8369 193.914L44.4919 170.391Z" fill="#9C0332"/>
<path d="M66.6235 180.125L73.522 175.711L82.5855 184.838L99.6942 200.799C100.62 200.592 101.586 200.672 102.466 201.028C103.345 201.384 104.096 201.999 104.619 202.792C105.142 203.585 105.412 204.519 105.395 205.47C105.377 206.42 105.072 207.343 104.52 208.116C103.967 208.889 103.194 209.476 102.302 209.799C101.41 210.122 100.442 210.166 99.5243 209.924C98.607 209.683 97.7844 209.168 97.1653 208.448C96.5461 207.728 96.1596 206.836 96.0569 205.891L77.1891 191.711L66.6235 180.125Z" fill="#A0616A"/>
<path d="M54.8966 171.129C54.0158 170.252 53.4055 169.14 53.1386 167.924C52.8716 166.709 52.9593 165.442 53.3913 164.276C53.7683 163.158 54.4623 162.175 55.3884 161.447C56.3144 160.72 57.4321 160.279 58.6045 160.178C59.4385 160.099 60.2798 160.202 61.0698 160.482C61.8598 160.762 62.5794 161.211 63.1784 161.799C68.7115 166.903 75.6035 175.615 75.6723 175.702L75.7818 175.841L70.7841 187.011L54.8966 171.129Z" fill="#9C0332"/>
<path d="M55.2396 155.496C61.2293 155.496 66.0849 150.627 66.0849 144.621C66.0849 138.615 61.2293 133.746 55.2396 133.746C49.2499 133.746 44.3943 138.615 44.3943 144.621C44.3943 150.627 49.2499 155.496 55.2396 155.496Z" fill="#A0616A"/>
<path d="M46.4593 160.114C44.7775 160.114 43.0972 160.011 41.4278 159.806L41.1989 159.778L39.452 150.269C38.7111 146.237 39.5372 142.074 41.7607 138.634C43.9842 135.195 47.4364 132.739 51.4089 131.771C51.674 131.703 51.9524 131.711 52.2136 131.792C52.4749 131.873 52.7087 132.024 52.8895 132.23L53.3061 132.085C54.9012 131.527 56.5903 131.29 58.2769 131.386C59.9635 131.483 61.6146 131.912 63.1358 132.649C64.6571 133.385 66.0187 134.415 67.143 135.68C68.2674 136.944 69.1323 138.418 69.6885 140.017L69.7918 140.314L67.0114 141.287C66.1451 141.589 65.357 142.082 64.7045 142.729C64.052 143.376 63.5514 144.16 63.2393 145.025C62.9271 145.89 62.8111 146.814 62.8999 147.73C62.9886 148.646 63.2798 149.53 63.7522 150.319L66.5949 155.064L66.2922 155.216C60.1567 158.388 53.3622 160.066 46.4593 160.114V160.114Z" fill="#03183F"/>
<path d="M419.055 205.622C419.18 205.014 419.437 204.441 419.807 203.943C420.178 203.445 420.652 203.035 421.198 202.741C421.743 202.448 422.346 202.277 422.964 202.242C423.583 202.208 424.201 202.309 424.776 202.54L434.64 191.141L436.749 198.692L427.059 208.359C426.609 209.302 425.829 210.046 424.868 210.451C423.907 210.856 422.831 210.893 421.844 210.555C420.858 210.218 420.029 209.529 419.515 208.62C419 207.711 418.837 206.644 419.055 205.622H419.055Z" fill="#FFB6B6"/>
<path d="M463.07 155.506L467.11 155.287L467.719 157.863C467.719 157.863 467.659 161.161 463.975 168.016C460.29 174.871 431.743 205.392 431.743 205.392L425.56 198.357L440.841 182.574L450.095 166.031L463.07 155.506Z" fill="#9C0332"/>
<path d="M2.65426 327.5H482.346C482.519 327.5 482.686 327.43 482.808 327.307C482.931 327.184 483 327.017 483 326.844C483 326.67 482.931 326.503 482.808 326.38C482.686 326.257 482.519 326.188 482.346 326.188H2.65426C2.48074 326.188 2.31433 326.257 2.19163 326.38C2.06894 326.503 2 326.67 2 326.844C2 327.017 2.06894 327.184 2.19163 327.307C2.31433 327.43 2.48074 327.5 2.65426 327.5Z" fill="#3F3D56" fill-opacity="0.4"/>
</g>
<defs>
<clipPath id="clip0_25_1251">
<rect width="481" height="322" fill="white" transform="translate(2 5.5)"/>
</clipPath>
</defs>
</svg>
