<svg width="485" height="334" viewBox="0 0 485 334" fill="none" xmlns="http://www.w3.org/2000/svg">
<g clip-path="url(#clip0_25_856)">
<path d="M416.377 139.539C423.062 146.577 430.52 147.699 438.752 142.908C435.298 137.352 434.475 131.308 435.396 124.941H419.36C420.071 130.536 419.88 135.745 416.377 139.539Z" fill="#FFB8B8"/>
<path d="M442.854 323.7L451.432 319.209L455.161 271.672V246.593L435.396 246.219L440.99 271.297L442.854 323.7Z" fill="#FFB8B8"/>
<path d="M417.992 323.7L409.415 319.209L405.686 271.672V246.593L425.45 246.219L419.856 271.297L417.992 323.7Z" fill="#FFB8B8"/>
<path d="M404.817 251.832L425.7 249.96L429.056 230.87L433.159 249.586L455.906 248.089C456.403 238.994 455.141 229.633 452.177 220.016L402.207 218.893L404.817 251.832Z" fill="#03183F"/>
<path d="M383.111 180.141L357.991 160.725C357.73 160.524 357.443 160.359 357.138 160.234L353.487 158.743C350.555 157.546 344.969 153.562 347.693 149.461C349.889 146.154 358.297 152.078 359.331 154.272C359.658 154.963 360.194 155.532 360.863 155.899L365.968 158.706C366.092 158.775 366.22 158.836 366.351 158.889L385.787 166.796C386.325 167.015 386.909 167.102 387.488 167.05C388.067 166.998 388.625 166.807 389.116 166.495L392.639 164.252C393.141 163.933 393.712 163.741 394.304 163.694C394.896 163.646 395.49 163.744 396.036 163.979C396.581 164.214 397.062 164.578 397.435 165.041C397.809 165.505 398.064 166.052 398.18 166.637L399.344 172.536C399.512 173.386 399.375 174.267 398.957 175.025C398.539 175.782 397.868 176.367 397.062 176.676L386.641 180.662C386.057 180.886 385.426 180.955 384.808 180.864C384.19 180.773 383.606 180.524 383.111 180.141V180.141Z" fill="#FFB8B8"/>
<path d="M387.777 165.994C394.732 164.122 394.002 173.874 399.308 178.67L409.741 170.403L403.698 141.037C402.077 141.502 400.586 142.339 399.342 143.482C398.098 144.625 397.137 146.043 396.533 147.623L387.777 165.994Z" fill="#9C0332"/>
<path d="M400.715 220.765H453.296C444.786 197.748 445.615 174.074 452.861 149.95C452.982 149.55 452.961 149.119 452.8 148.733C452.639 148.346 452.349 148.028 451.98 147.834L436.888 139.915C430.963 143.784 424.596 142.595 417.869 137.295L401.461 141.787C405.927 168.714 406.054 195.088 400.715 220.765Z" fill="#9C0332"/>
<path d="M413.862 332.491L391.95 333.423C390.996 333.464 390.06 333.149 389.324 332.538C388.587 331.928 388.101 331.066 387.96 330.118V330.118C387.817 329.161 388.036 328.184 388.574 327.38C389.111 326.576 389.928 326.003 390.865 325.773L394.582 324.858L409.19 316.359C411.354 318.609 414.334 320.511 417.977 322.131L418.02 328.106C418.028 329.235 417.599 330.323 416.823 331.141C416.048 331.959 414.986 332.443 413.862 332.491V332.491Z" fill="#03183F"/>
<path d="M484.783 333.499H0.17627V332.297H485L484.783 333.499Z" fill="#3F3D56" fill-opacity="0.4"/>
<path d="M446.801 332.157L468.714 333.089C469.668 333.13 470.603 332.814 471.34 332.204C472.076 331.594 472.562 330.732 472.703 329.784V329.784C472.846 328.827 472.627 327.85 472.09 327.046C471.553 326.242 470.735 325.669 469.799 325.439L466.082 324.524L451.474 316.025C449.31 318.275 446.329 320.177 442.686 321.797L442.644 327.772C442.636 328.901 443.065 329.989 443.84 330.807C444.616 331.625 445.677 332.109 446.801 332.157V332.157Z" fill="#03183F"/>
<path d="M425.7 131.68C432.291 131.68 437.633 126.318 437.633 119.702C437.633 113.087 432.291 107.725 425.7 107.725C419.109 107.725 413.767 113.087 413.767 119.702C413.767 126.318 419.109 131.68 425.7 131.68Z" fill="#FFB8B8"/>
<path d="M444.346 217.022L440.403 224.716C440.056 225.395 439.855 226.14 439.814 226.903C439.774 227.665 439.895 228.428 440.169 229.14C440.443 229.852 440.864 230.498 441.404 231.036C441.945 231.573 442.592 231.989 443.305 232.257V232.257C444.058 232.541 444.866 232.652 445.668 232.581C446.47 232.511 447.246 232.261 447.939 231.85C448.633 231.439 449.225 230.877 449.674 230.206C450.122 229.535 450.416 228.771 450.532 227.972L452.177 216.648L458.144 188.2L457.771 173.977H445.838C449.908 184.556 447.889 200.16 444.346 217.022Z" fill="#FFB8B8"/>
<path d="M443.973 175.474H460.009L457.681 157.822C457.365 155.429 456.457 153.152 455.04 151.201C453.623 149.25 451.741 147.686 449.567 146.652L443.973 175.474Z" fill="#9C0332"/>
<path d="M438.387 113.105C438.625 111.505 438.525 109.872 438.093 108.314C437.661 106.755 436.906 105.305 435.879 104.059C433.843 101.641 430.43 99.6615 424.768 100.595C412.415 102.633 408.853 112.955 410.063 115.551C411.273 118.147 414.983 124.164 414.983 124.164C414.983 124.164 412.26 118.207 415.215 116.995C418.17 115.782 429.605 111.006 433.597 113.158C434.726 113.727 435.686 114.587 436.377 115.649C437.068 116.712 437.466 117.939 437.531 119.207L438.387 113.105Z" fill="#03183F"/>
<path d="M234.139 63.2549L229.341 65.6985C223.815 54.7761 216.493 44.8671 207.685 36.3879C164.426 -5.35452 95.3994 -3.98979 53.8121 39.4301C12.2248 82.8501 13.5845 152.135 56.843 193.877C65.0763 201.838 74.5086 208.446 84.7924 213.457L82.4454 218.316C66.145 210.372 51.9618 198.649 41.0678 184.115C30.1738 169.581 22.8816 152.653 19.7937 134.731C16.7059 116.809 17.911 98.4072 23.3095 81.0451C28.7081 63.683 38.1451 47.8595 50.8408 34.8819C63.5365 21.9043 79.1265 12.1452 96.3227 6.4109C113.519 0.676578 131.828 -0.868355 149.736 1.90375C167.645 4.67585 184.64 11.6854 199.316 22.3533C213.992 33.0212 225.929 47.0412 234.139 63.2549V63.2549Z" fill="#E6E6E6"/>
<path d="M71.8172 163.722C64.76 171.09 60.908 180.97 61.1085 191.189C61.3091 201.408 65.5458 211.128 72.8865 218.212C80.2273 225.295 90.0709 229.162 100.252 228.96C110.433 228.759 120.117 224.507 127.174 217.138L133.784 210.237L78.4271 156.82L71.8172 163.722Z" fill="#E6E6E6"/>
<path d="M74.7182 152.901C73.1473 154.544 72.2902 156.747 72.3349 159.024C72.3796 161.301 73.3224 163.468 74.9566 165.048L125.73 214.042C127.366 215.621 129.561 216.483 131.83 216.438C134.1 216.393 136.259 215.445 137.832 213.803C139.405 212.16 140.264 209.958 140.22 207.679C140.175 205.401 139.23 203.234 137.594 201.655L86.8205 152.661C85.1828 151.085 82.9889 150.224 80.7201 150.269C78.4512 150.314 76.2927 151.26 74.7182 152.901Z" fill="#03183F"/>
<path d="M227.001 112.911L233.611 106.01C240.668 98.6419 244.52 88.7615 244.32 78.5426C244.119 68.3237 239.882 58.6033 232.542 51.5198C228.907 48.0124 224.619 45.2579 219.924 43.4137C215.229 41.5694 210.217 40.6715 205.176 40.7711C194.995 40.9724 185.311 45.2249 178.254 52.5931L171.644 59.4943L227.001 112.911Z" fill="#E6E6E6"/>
<path d="M167.596 55.93C166.025 57.5738 165.168 59.7759 165.213 62.0532C165.258 64.3305 166.201 66.497 167.835 68.0775L218.608 117.071C220.245 118.649 222.439 119.509 224.707 119.463C226.976 119.418 229.133 118.47 230.706 116.828C232.279 115.186 233.137 112.985 233.093 110.708C233.049 108.431 232.107 106.264 230.472 104.685L179.699 55.6907C178.061 54.114 175.867 53.2537 173.598 53.2985C171.329 53.3434 169.171 54.2897 167.596 55.93V55.93Z" fill="#03183F"/>
<path d="M189.014 169.153V165.173C189.014 165.173 206.32 155.402 220.381 165.173V168.791L189.014 169.153Z" fill="#03183F"/>
<path d="M346.569 169.153V165.173C346.569 165.173 363.875 155.402 377.936 165.173V168.791L346.569 169.153Z" fill="#03183F"/>
<path d="M240.932 168.791H223.986C223.986 168.791 219.66 163.725 205.238 164.087C190.817 164.449 187.933 168.791 187.933 168.791C187.933 168.791 173.691 178.381 170.447 190.323C170.447 190.323 152.961 242.977 152.6 284.232C152.24 325.486 168.103 331.277 176.395 332.362C184.688 333.448 199.47 332 213.891 295.45L220.021 274.099C220.021 274.099 221.102 261.433 234.081 269.395C247.061 277.356 258.598 265.052 258.598 265.052H307.271C307.271 265.052 323.495 275.185 338.277 267.223C338.277 267.223 344.045 259.624 349.453 285.318C349.453 285.318 366.038 338.152 391.636 332.724C417.234 327.296 414.35 283.146 414.35 283.146C414.35 283.146 410.925 215.655 396.864 191.771C396.864 191.771 383.344 166.982 374.33 165.896C374.33 165.896 354.861 162.277 347.29 165.534L342.964 169.153L240.932 168.791Z" fill="#E6E6E6"/>
<path d="M201.633 235.739C218.957 235.739 233 221.643 233 204.255C233 186.867 218.957 172.771 201.633 172.771C184.31 172.771 170.267 186.867 170.267 204.255C170.267 221.643 184.31 235.739 201.633 235.739Z" fill="#03183F"/>
<path d="M365.317 235.739C382.64 235.739 396.684 221.643 396.684 204.255C396.684 186.867 382.64 172.771 365.317 172.771C347.994 172.771 333.95 186.867 333.95 204.255C333.95 221.643 347.994 235.739 365.317 235.739Z" fill="#03183F"/>
<path d="M207.099 197.236L202.917 200.949C202.563 201.262 202.107 201.434 201.635 201.434C201.163 201.434 200.708 201.262 200.353 200.949L196.164 197.236C195.959 197.055 195.795 196.832 195.682 196.582C195.569 196.333 195.509 196.062 195.508 195.788V185.572C195.509 185.057 195.714 184.562 196.077 184.198C196.441 183.834 196.934 183.629 197.448 183.629H205.83C206.343 183.628 206.836 183.832 207.2 184.196C207.564 184.559 207.769 185.053 207.77 185.569V195.781C207.767 196.057 207.706 196.33 207.591 196.581C207.475 196.832 207.308 197.055 207.099 197.236Z" fill="#E6E6E6"/>
<path d="M207.099 211.273L202.917 207.564C202.563 207.251 202.107 207.078 201.635 207.078C201.163 207.078 200.708 207.251 200.353 207.564L196.164 211.277C195.959 211.458 195.795 211.68 195.682 211.93C195.569 212.179 195.509 212.45 195.508 212.724V222.929C195.507 223.445 195.71 223.939 196.072 224.304C196.435 224.67 196.927 224.875 197.44 224.876H205.83C206.343 224.877 206.836 224.673 207.2 224.31C207.564 223.946 207.769 223.452 207.77 222.937V212.728C207.767 212.451 207.706 212.179 207.591 211.928C207.475 211.677 207.307 211.454 207.099 211.273V211.273Z" fill="#E6E6E6"/>
<path d="M194.643 209.749L198.342 205.544C198.653 205.189 198.826 204.731 198.826 204.258C198.826 203.784 198.653 203.327 198.342 202.971L194.643 198.766C194.462 198.561 194.24 198.396 193.992 198.282C193.743 198.169 193.473 198.109 193.2 198.107H183.033C182.519 198.108 182.027 198.314 181.664 198.679C181.301 199.044 181.097 199.539 181.097 200.054V208.468C181.096 208.983 181.299 209.478 181.662 209.843C182.024 210.208 182.516 210.414 183.03 210.415H193.204C193.477 210.412 193.746 210.351 193.994 210.237C194.242 210.122 194.463 209.956 194.643 209.749V209.749Z" fill="#E6E6E6"/>
<path d="M208.628 209.749L204.936 205.54C204.623 205.185 204.451 204.728 204.451 204.254C204.451 203.78 204.623 203.322 204.936 202.967L208.635 198.762C208.815 198.556 209.037 198.391 209.286 198.278C209.534 198.164 209.804 198.105 210.077 198.104H220.244C220.758 198.103 221.25 198.306 221.614 198.67C221.978 199.034 222.183 199.528 222.184 200.043V208.464C222.185 208.98 221.982 209.474 221.619 209.839C221.257 210.205 220.765 210.41 220.251 210.411H210.081C209.805 210.411 209.533 210.351 209.283 210.237C209.032 210.123 208.809 209.957 208.628 209.749V209.749Z" fill="#E6E6E6"/>
<path d="M244.177 261.433C256.721 261.433 266.891 251.226 266.891 238.635C266.891 226.043 256.721 215.836 244.177 215.836C231.632 215.836 221.463 226.043 221.463 238.635C221.463 251.226 231.632 261.433 244.177 261.433Z" fill="#03183F"/>
<path d="M322.774 261.433C335.318 261.433 345.488 251.226 345.488 238.635C345.488 226.043 335.318 215.836 322.774 215.836C310.229 215.836 300.06 226.043 300.06 238.635C300.06 251.226 310.229 261.433 322.774 261.433Z" fill="#03183F"/>
<path d="M244.177 253.834C252.54 253.834 259.319 247.029 259.319 238.635C259.319 230.24 252.54 223.436 244.177 223.436C235.814 223.436 229.034 230.24 229.034 238.635C229.034 247.029 235.814 253.834 244.177 253.834Z" fill="#E6E6E6"/>
<path d="M244.177 249.13C242.109 249.13 240.087 248.514 238.368 247.361C236.649 246.208 235.308 244.569 234.517 242.651C233.726 240.734 233.519 238.624 233.922 236.588C234.326 234.552 235.321 232.682 236.784 231.214C238.246 229.747 240.109 228.747 242.137 228.342C244.165 227.937 246.267 228.145 248.178 228.939C250.088 229.734 251.721 231.079 252.87 232.805C254.019 234.531 254.632 236.56 254.632 238.635C254.629 241.418 253.527 244.085 251.566 246.053C249.606 248.02 246.949 249.127 244.177 249.13V249.13ZM244.177 228.864C242.251 228.864 240.369 229.437 238.769 230.511C237.168 231.585 235.92 233.111 235.183 234.896C234.447 236.681 234.254 238.646 234.629 240.541C235.005 242.437 235.932 244.178 237.293 245.544C238.655 246.911 240.389 247.841 242.278 248.218C244.166 248.595 246.123 248.402 247.902 247.662C249.681 246.923 251.201 245.67 252.271 244.064C253.34 242.457 253.911 240.568 253.911 238.635C253.908 236.045 252.882 233.561 251.057 231.729C249.232 229.898 246.758 228.867 244.177 228.864V228.864Z" fill="#03183F"/>
<path d="M322.774 253.834C331.137 253.834 337.916 247.029 337.916 238.635C337.916 230.24 331.137 223.436 322.774 223.436C314.411 223.436 307.631 230.24 307.631 238.635C307.631 247.029 314.411 253.834 322.774 253.834Z" fill="#E6E6E6"/>
<path d="M322.774 249.13C320.706 249.13 318.685 248.514 316.965 247.361C315.246 246.208 313.906 244.569 313.114 242.651C312.323 240.734 312.116 238.624 312.519 236.588C312.923 234.552 313.918 232.682 315.381 231.214C316.843 229.747 318.706 228.747 320.734 228.342C322.762 227.937 324.865 228.145 326.775 228.939C328.686 229.734 330.319 231.079 331.467 232.805C332.616 234.531 333.229 236.56 333.229 238.635C333.226 241.418 332.124 244.085 330.164 246.053C328.203 248.02 325.546 249.127 322.774 249.13ZM322.774 228.864C320.849 228.864 318.967 229.437 317.366 230.511C315.765 231.585 314.517 233.111 313.78 234.896C313.044 236.681 312.851 238.646 313.226 240.541C313.602 242.437 314.529 244.178 315.891 245.544C317.252 246.911 318.987 247.841 320.875 248.218C322.763 248.595 324.72 248.402 326.499 247.662C328.278 246.923 329.798 245.67 330.868 244.064C331.937 242.457 332.508 240.568 332.508 238.635C332.505 236.045 331.479 233.561 329.654 231.729C327.829 229.898 325.355 228.867 322.774 228.864V228.864Z" fill="#03183F"/>
<path d="M284.196 247.682C287.78 247.682 290.686 244.766 290.686 241.168C290.686 237.571 287.78 234.654 284.196 234.654C280.612 234.654 277.707 237.571 277.707 241.168C277.707 244.766 280.612 247.682 284.196 247.682Z" fill="#03183F"/>
<path d="M274.278 220.848C275.06 220.848 275.695 220.212 275.695 219.426C275.695 218.641 275.06 218.004 274.278 218.004C273.495 218.004 272.861 218.641 272.861 219.426C272.861 220.212 273.495 220.848 274.278 220.848Z" fill="#03183F"/>
<path d="M279.585 220.848C280.367 220.848 281.002 220.212 281.002 219.426C281.002 218.641 280.367 218.004 279.585 218.004C278.802 218.004 278.168 218.641 278.168 219.426C278.168 220.212 278.802 220.848 279.585 220.848Z" fill="#03183F"/>
<path d="M278.878 227.598C279.661 227.598 280.295 226.962 280.295 226.176C280.295 225.391 279.661 224.754 278.878 224.754C278.096 224.754 277.461 225.391 277.461 226.176C277.461 226.962 278.096 227.598 278.878 227.598Z" fill="#03183F"/>
<path d="M283.836 227.778C284.632 227.778 285.278 227.13 285.278 226.33C285.278 225.531 284.632 224.883 283.836 224.883C283.039 224.883 282.394 225.531 282.394 226.33C282.394 227.13 283.039 227.778 283.836 227.778Z" fill="#03183F"/>
<path d="M288.786 227.598C289.569 227.598 290.203 226.962 290.203 226.176C290.203 225.391 289.569 224.754 288.786 224.754C288.004 224.754 287.369 225.391 287.369 226.176C287.369 226.962 288.004 227.598 288.786 227.598Z" fill="#03183F"/>
<path d="M276.755 224.401C277.537 224.401 278.172 223.764 278.172 222.979C278.172 222.193 277.537 221.557 276.755 221.557C275.972 221.557 275.338 222.193 275.338 222.979C275.338 223.764 275.972 224.401 276.755 224.401Z" fill="#03183F"/>
<path d="M281.312 224.522C282.108 224.522 282.754 223.874 282.754 223.074C282.754 222.275 282.108 221.627 281.312 221.627C280.515 221.627 279.87 222.275 279.87 223.074C279.87 223.874 280.515 224.522 281.312 224.522Z" fill="#03183F"/>
<path d="M285.999 224.522C286.795 224.522 287.441 223.874 287.441 223.074C287.441 222.275 286.795 221.627 285.999 221.627C285.202 221.627 284.557 222.275 284.557 223.074C284.557 223.874 285.202 224.522 285.999 224.522Z" fill="#03183F"/>
<path d="M290.91 224.401C291.692 224.401 292.326 223.764 292.326 222.979C292.326 222.193 291.692 221.557 290.91 221.557C290.127 221.557 289.493 222.193 289.493 222.979C289.493 223.764 290.127 224.401 290.91 224.401Z" fill="#03183F"/>
<path d="M283.836 220.903C284.632 220.903 285.278 220.255 285.278 219.455C285.278 218.656 284.632 218.008 283.836 218.008C283.039 218.008 282.394 218.656 282.394 219.455C282.394 220.255 283.039 220.903 283.836 220.903Z" fill="#03183F"/>
<path d="M288.883 220.903C289.68 220.903 290.325 220.255 290.325 219.455C290.325 218.656 289.68 218.008 288.883 218.008C288.087 218.008 287.441 218.656 287.441 219.455C287.441 220.255 288.087 220.903 288.883 220.903Z" fill="#03183F"/>
<path d="M293.033 220.848C293.816 220.848 294.45 220.212 294.45 219.426C294.45 218.641 293.816 218.004 293.033 218.004C292.251 218.004 291.616 218.641 291.616 219.426C291.616 220.212 292.251 220.848 293.033 220.848Z" fill="#03183F"/>
<path d="M230.296 171.875C229.629 171.876 228.989 172.142 228.518 172.615C228.046 173.089 227.781 173.73 227.78 174.4V182C227.781 182.669 228.046 183.311 228.518 183.784C228.989 184.257 229.629 184.524 230.296 184.524H232.098C232.765 184.524 233.405 184.257 233.876 183.784C234.348 183.311 234.613 182.669 234.614 182V174.4C234.613 173.73 234.348 173.089 233.876 172.615C233.405 172.142 232.765 171.876 232.098 171.875H230.296Z" fill="#03183F"/>
<path d="M335.573 171.875C334.906 171.876 334.266 172.142 333.795 172.615C333.323 173.089 333.058 173.73 333.057 174.4V182C333.058 182.669 333.323 183.311 333.795 183.784C334.266 184.257 334.906 184.524 335.573 184.524H337.375C338.042 184.524 338.682 184.257 339.153 183.784C339.625 183.311 339.89 182.669 339.891 182V174.4C339.89 173.73 339.625 173.089 339.153 172.615C338.682 172.142 338.042 171.876 337.375 171.875H335.573Z" fill="#03183F"/>
<path d="M365.678 193.761C370.457 193.761 374.331 189.873 374.331 185.076C374.331 180.279 370.457 176.391 365.678 176.391C360.899 176.391 357.025 180.279 357.025 185.076C357.025 189.873 360.899 193.761 365.678 193.761Z" fill="#E6E6E6"/>
<path d="M347.29 212.218C352.069 212.218 355.943 208.33 355.943 203.533C355.943 198.736 352.069 194.848 347.29 194.848C342.511 194.848 338.637 198.736 338.637 203.533C338.637 208.33 342.511 212.218 347.29 212.218Z" fill="#E6E6E6"/>
<path d="M384.786 211.132C389.565 211.132 393.439 207.244 393.439 202.447C393.439 197.65 389.565 193.762 384.786 193.762C380.007 193.762 376.133 197.65 376.133 202.447C376.133 207.244 380.007 211.132 384.786 211.132Z" fill="#E6E6E6"/>
<path d="M367.12 230.312C371.899 230.312 375.773 226.423 375.773 221.627C375.773 216.83 371.899 212.941 367.12 212.941C362.341 212.941 358.467 216.83 358.467 221.627C358.467 226.423 362.341 230.312 367.12 230.312Z" fill="#E6E6E6"/>
<path d="M246.61 166.809C244.677 166.811 242.823 167.583 241.456 168.955C240.089 170.327 239.32 172.188 239.317 174.128V206.517C239.32 208.457 240.089 210.318 241.456 211.69C242.823 213.063 244.677 213.834 246.61 213.837H320.7C322.634 213.834 324.487 213.063 325.855 211.69C327.222 210.318 327.991 208.457 327.993 206.517V174.128C327.991 172.188 327.222 170.327 325.855 168.955C324.487 167.583 322.634 166.811 320.7 166.809H246.61Z" fill="#03183F"/>
<path d="M371.556 189.057H359.822L365.487 179.311L371.556 189.057ZM361.078 188.334H370.255L365.508 180.71L361.078 188.334Z" fill="#03183F"/>
<path d="M352.157 207.875H342.423V199.189H352.157V207.875ZM343.144 207.151H351.436V199.913H343.144V207.151Z" fill="#03183F"/>
<path d="M384.786 207.874C383.716 207.874 382.671 207.556 381.781 206.959C380.892 206.363 380.199 205.515 379.79 204.523C379.38 203.531 379.273 202.44 379.482 201.387C379.691 200.334 380.206 199.367 380.962 198.607C381.718 197.848 382.682 197.331 383.731 197.122C384.78 196.912 385.867 197.02 386.856 197.431C387.844 197.842 388.688 198.537 389.283 199.43C389.877 200.323 390.194 201.372 390.194 202.446C390.193 203.885 389.622 205.265 388.608 206.282C387.594 207.3 386.22 207.872 384.786 207.874ZM384.786 197.741C383.859 197.741 382.953 198.017 382.182 198.534C381.411 199.051 380.811 199.786 380.456 200.645C380.101 201.505 380.008 202.451 380.189 203.364C380.37 204.276 380.816 205.114 381.472 205.772C382.127 206.43 382.962 206.878 383.872 207.06C384.781 207.241 385.723 207.148 386.58 206.792C387.436 206.436 388.168 205.833 388.683 205.059C389.198 204.286 389.473 203.376 389.473 202.446C389.472 201.198 388.977 200.003 388.099 199.121C387.22 198.239 386.029 197.743 384.786 197.741Z" fill="#03183F"/>
<path d="M363.229 217.299L362.719 217.811L370.831 225.953L371.341 225.441L363.229 217.299Z" fill="#03183F"/>
<path d="M371.017 217.293L362.725 225.256L363.224 225.779L371.515 217.816L371.017 217.293Z" fill="#03183F"/>
<path d="M76.6379 84.1169C56.9526 89.5643 35.3963 93.665 27.6724 87.3033C31.9013 80.2368 34.3404 73.2717 34.5474 66.4333C34.594 63.3043 35.8566 60.3175 38.0659 58.1095C39.5285 56.6913 41.2939 55.6262 43.2281 54.9954C45.1622 54.3646 47.2141 54.1845 49.228 54.4689L54.3368 55.1885C54.5088 55.2127 54.6799 55.2402 54.85 55.271C57.3022 55.7372 59.5473 56.9626 61.2702 58.7751C62.9931 60.5875 64.1073 62.896 64.4563 65.3764C65.5327 72.7917 69.1522 79.2112 76.6379 84.1169Z" fill="#03183F"/>
<path d="M95.6268 154.466L103.28 156.05C103.864 156.171 104.415 156.421 104.891 156.782C105.367 157.143 105.757 157.606 106.033 158.138C106.309 158.669 106.463 159.255 106.485 159.854C106.507 160.453 106.395 161.049 106.159 161.599V161.599C105.931 162.13 105.591 162.606 105.163 162.995C104.736 163.383 104.23 163.674 103.68 163.849C103.13 164.023 102.549 164.077 101.976 164.006C101.404 163.935 100.853 163.741 100.362 163.438L88.6559 156.211L68.7725 109.295L79.0711 106.305L95.6268 154.466Z" fill="#A0616A"/>
<path d="M41.1102 216.031L35.3156 217.722L30.9294 208.63L35.3897 206.297L41.1102 216.031Z" fill="#A0616A"/>
<path d="M38.1658 254.987L31.0562 253.098L32.1692 240.838L38.2877 241.216L38.1658 254.987Z" fill="#A0616A"/>
<path d="M38.9073 207.53L31.3772 212.504L2.41554 179.623C1.78733 178.909 1.32343 178.066 1.05685 177.152C0.790261 176.239 0.727545 175.277 0.873148 174.337C1.01875 173.396 1.3691 172.499 1.89927 171.71C2.42945 170.92 3.12642 170.258 3.9406 169.77L40.0197 148.131L45.5456 164.064L26.7591 181.76L38.9073 207.53Z" fill="#03183F"/>
<path d="M45.2489 224.744C45.2301 224.768 45.2111 224.793 45.1921 224.817C44.7109 227.646 43.8657 230.226 41.978 232.093C41.4184 233.36 40.4135 234.376 39.1553 234.946C37.897 235.517 36.4735 235.602 35.1566 235.186V235.186C33.9147 234.793 32.8472 233.98 32.1367 232.885C31.4262 231.789 31.1169 230.48 31.2616 229.182L32.6687 216.557C36.0441 215.779 38.6184 213.852 39.9214 210.104L43.2018 212.346C44.1726 213.005 44.9995 213.855 45.6322 214.844C46.2648 215.834 46.6899 216.943 46.8814 218.103C47.073 219.263 47.0271 220.45 46.7464 221.592C46.4657 222.734 45.9562 223.806 45.2489 224.744V224.744Z" fill="#03183F"/>
<path d="M48.8186 81.4131C55.2196 81.4131 60.4086 76.2047 60.4086 69.7798C60.4086 63.3549 55.2196 58.1465 48.8186 58.1465C42.4176 58.1465 37.2285 63.3549 37.2285 69.7798C37.2285 76.2047 42.4176 81.4131 48.8186 81.4131Z" fill="#A0616A"/>
<path d="M58.8556 88.3771L40.5839 103.566L39.1609 97.3139L42.3501 92.4343C43.2352 87.6468 42.6637 82.3675 41.1429 76.7676L53.0638 76.7786C53.5785 81.3039 55.3337 85.2517 58.8556 88.3771Z" fill="#A0616A"/>
<path d="M63.9998 128.218L39.333 135.76L37.4139 126.954C32.7913 120.724 30.7818 115.038 33.8061 110.399L32.2842 103.415C36.6499 99.9653 40.083 96.4353 41.9681 92.7726L57.1447 86.8203L68.3015 87.5093L71.5961 98.5911L63.9998 128.218Z" fill="#9C0332"/>
<path d="M81.5237 107.545C76.2657 107.489 71.1199 109.071 66.7957 112.074L68.3015 87.5098C69.8299 87.7146 71.2789 88.3154 72.5058 89.2529C73.7327 90.1904 74.6953 91.4324 75.2989 92.8567L81.5237 107.545Z" fill="#9C0332"/>
<path d="M38.8302 244.148L31.001 242.215L32.1534 175.442L42.6664 163.886L40.3131 149.236L38.7903 132.825L64.4704 126.434C73.1503 142.253 78.3967 156.636 70.7385 165.62L38.8302 244.148Z" fill="#03183F"/>
<path d="M37.032 266.694C36.9968 266.707 36.9617 266.721 36.9265 266.735C34.6531 269.384 32.1553 271.545 29.0149 272.304C27.6374 273.274 25.9523 273.701 24.2814 273.502C22.6105 273.304 21.0709 272.495 19.9564 271.23V271.23C18.9054 270.037 18.3001 268.514 18.244 266.922C18.1879 265.331 18.6845 263.769 19.6489 262.504L29.0222 250.211C33.0341 251.527 36.9283 251.139 40.6358 248.047L42.6568 252.458C43.2582 253.758 43.5894 255.167 43.6302 256.599C43.671 258.032 43.4206 259.458 42.8943 260.79C42.3679 262.122 41.5766 263.333 40.5687 264.348C39.5608 265.363 38.3574 266.161 37.032 266.694V266.694Z" fill="#03183F"/>
<path d="M8.43182 162.499L1.55986 168.404C0.9896 168.894 0.551827 169.521 0.287129 170.226C0.02243 170.931 -0.0606313 171.692 0.045643 172.438C0.151917 173.184 0.444089 173.891 0.895074 174.493C1.34606 175.096 1.94126 175.574 2.62551 175.884V175.884C3.65557 176.351 4.82375 176.407 5.89388 176.043C6.96401 175.678 7.85627 174.919 8.39028 173.919L13.3597 164.616L36.1491 122.873L27.578 121.256L8.43182 162.499Z" fill="#A0616A"/>
<path d="M37.5222 124.046C33.071 122.697 28.9014 121.903 25.6677 122.951C26.3456 114.531 27.7426 107.01 32.2841 103.416L38.7402 104.177L37.5222 124.046Z" fill="#9C0332"/>
<path d="M61.7572 67.0827L36.9683 65.5518L37.2733 60.5755C45.9266 54.719 54.1895 55.2293 62.0622 62.1064L61.7572 67.0827Z" fill="#03183F"/>
</g>
<defs>
<clipPath id="clip0_25_856">
<rect width="485" height="333" fill="white" transform="translate(0 0.5)"/>
</clipPath>
</defs>
</svg>
